<svg xmlns="http://www.w3.org/2000/svg" viewBox="0 0 1400 950" font-family="-apple-system, BlinkMacSystemFont, 'Segoe UI', Inter, system-ui, sans-serif">
  <defs>
    <linearGradient id="bg" x1="0" y1="0" x2="0" y2="1">
      <stop offset="0" stop-color="#0b1220"/>
      <stop offset="1" stop-color="#111827"/>
    </linearGradient>

    <linearGradient id="frontUi" x1="0" y1="0" x2="0" y2="1">
      <stop offset="0" stop-color="#60a5fa"/><stop offset="1" stop-color="#3b82f6"/>
    </linearGradient>
    <linearGradient id="frontRag" x1="0" y1="0" x2="0" y2="1">
      <stop offset="0" stop-color="#34d399"/><stop offset="1" stop-color="#059669"/>
    </linearGradient>
    <linearGradient id="frontOra" x1="0" y1="0" x2="0" y2="1">
      <stop offset="0" stop-color="#f87171"/><stop offset="1" stop-color="#b91c1c"/>
    </linearGradient>
    <linearGradient id="frontClaude" x1="0" y1="0" x2="0" y2="1">
      <stop offset="0" stop-color="#fbbf24"/><stop offset="1" stop-color="#d97706"/>
    </linearGradient>
    <linearGradient id="frontIngest" x1="0" y1="0" x2="0" y2="1">
      <stop offset="0" stop-color="#c084fc"/><stop offset="1" stop-color="#7c3aed"/>
    </linearGradient>
    <linearGradient id="frontNotes" x1="0" y1="0" x2="0" y2="1">
      <stop offset="0" stop-color="#9ca3af"/><stop offset="1" stop-color="#4b5563"/>
    </linearGradient>

    <marker id="arrW" markerWidth="10" markerHeight="10" refX="9" refY="3" orient="auto">
      <path d="M0,0 L9,3 L0,6 z" fill="#e5e7eb"/>
    </marker>
    <marker id="arrG" markerWidth="10" markerHeight="10" refX="9" refY="3" orient="auto">
      <path d="M0,0 L9,3 L0,6 z" fill="#9ca3af"/>
    </marker>
    <marker id="arrA" markerWidth="10" markerHeight="10" refX="9" refY="3" orient="auto">
      <path d="M0,0 L9,3 L0,6 z" fill="#fbbf24"/>
    </marker>
    <marker id="arrP" markerWidth="10" markerHeight="10" refX="9" refY="3" orient="auto">
      <path d="M0,0 L9,3 L0,6 z" fill="#a78bfa"/>
    </marker>

    <filter id="boxshadow" x="-20%" y="-20%" width="140%" height="140%">
      <feGaussianBlur in="SourceAlpha" stdDeviation="6"/>
      <feOffset dx="0" dy="6"/>
      <feComponentTransfer><feFuncA type="linear" slope="0.45"/></feComponentTransfer>
      <feMerge><feMergeNode/><feMergeNode in="SourceGraphic"/></feMerge>
    </filter>
  </defs>

  <rect width="1400" height="950" fill="url(#bg)"/>

  <!-- ─── Title ─── -->
  <text x="80" y="80" font-size="32" font-weight="800" fill="#f9fafb" letter-spacing="-0.5">Talk to EBS</text>
  <text x="80" y="112" font-size="15" fill="#9ca3af">RAG over Oracle E-Business Suite · Oracle 23ai vector search · Claude with prompt caching</text>
  <line x1="80" y1="130" x2="320" y2="130" stroke="#374151" stroke-width="2"/>

  <!-- ─── DBA / Browser tab ─── -->
  <g id="dba" transform="translate(620, 170)">
    <rect x="0" y="0" width="160" height="42" rx="21" fill="#1f2937" stroke="#374151" stroke-width="1.5"/>
    <circle cx="22" cy="21" r="9" fill="#fde68a" stroke="#f59e0b" stroke-width="1.2"/>
    <path d="M11,40 Q22,28 33,40" fill="none" stroke="#f59e0b" stroke-width="1.2"/>
    <text x="44" y="26" fill="#fde68a" font-size="14" font-weight="600">DBA / Browser</text>
  </g>

  <!-- ─── Streamlit UI ─── -->
  <g id="streamlit" filter="url(#boxshadow)">
    <polygon points="480,260 920,260 940,240 500,240" fill="#93c5fd"/>
    <polygon points="920,260 940,240 940,350 920,370" fill="#1d4ed8"/>
    <rect x="480" y="260" width="440" height="110" fill="url(#frontUi)"/>
    <text x="700" y="293" text-anchor="middle" fill="#fff" font-size="20" font-weight="700">Streamlit UI</text>
    <text x="700" y="316" text-anchor="middle" fill="#dbeafe" font-size="12">app.py · streaming chat</text>
    <line x1="540" y1="328" x2="860" y2="328" stroke="#bfdbfe" stroke-opacity="0.4"/>
    <text x="700" y="348" text-anchor="middle" fill="#eff6ff" font-size="12">live cost · cache hit rate · Sources panel</text>
  </g>

  <!-- ─── RAG Orchestrator ─── -->
  <g id="rag" filter="url(#boxshadow)">
    <polygon points="440,460 960,460 980,440 460,440" fill="#6ee7b7"/>
    <polygon points="960,460 980,440 980,570 960,590" fill="#047857"/>
    <rect x="440" y="460" width="520" height="130" fill="url(#frontRag)"/>
    <text x="700" y="494" text-anchor="middle" fill="#fff" font-size="20" font-weight="700">RAG Orchestrator</text>
    <text x="700" y="517" text-anchor="middle" fill="#d1fae5" font-size="12">src/oracle_ebs_rag/rag.py</text>
    <line x1="500" y1="529" x2="900" y2="529" stroke="#a7f3d0" stroke-opacity="0.4"/>
    <text x="700" y="548" text-anchor="middle" fill="#ecfdf5" font-size="13">1. retrieve top-k chunks   ·   2. assemble cached prompt</text>
    <text x="700" y="568" text-anchor="middle" fill="#ecfdf5" font-size="13">3. stream grounded answer with citations</text>
  </g>

  <!-- ─── Oracle 23ai ─── -->
  <g id="oracle" filter="url(#boxshadow)">
    <polygon points="160,680 500,680 520,660 180,660" fill="#fca5a5"/>
    <polygon points="500,680 520,660 520,800 500,820" fill="#991b1b"/>
    <rect x="160" y="680" width="340" height="140" fill="url(#frontOra)"/>
    <text x="330" y="713" text-anchor="middle" fill="#fff" font-size="19" font-weight="700">Oracle 23ai</text>
    <text x="330" y="734" text-anchor="middle" fill="#fee2e2" font-size="12">native vector store</text>
    <line x1="200" y1="746" x2="460" y2="746" stroke="#fecaca" stroke-opacity="0.4"/>
    <text x="330" y="766" text-anchor="middle" fill="#fef2f2" font-size="12">VECTOR(1024, FLOAT32)</text>
    <text x="330" y="785" text-anchor="middle" fill="#fef2f2" font-size="12">VECTOR_DISTANCE · cosine</text>
    <text x="330" y="804" text-anchor="middle" fill="#fef2f2" font-size="12">rag_documents · rag_chunks</text>
  </g>

  <!-- ─── Claude API ─── -->
  <g id="claude" filter="url(#boxshadow)">
    <polygon points="900,680 1240,680 1260,660 920,660" fill="#fde68a"/>
    <polygon points="1240,680 1260,660 1260,800 1240,820" fill="#92400e"/>
    <rect x="900" y="680" width="340" height="140" fill="url(#frontClaude)"/>
    <text x="1070" y="713" text-anchor="middle" fill="#1c1917" font-size="19" font-weight="700">Claude API</text>
    <text x="1070" y="734" text-anchor="middle" fill="#451a03" font-size="12">grounded generation</text>
    <line x1="940" y1="746" x2="1200" y2="746" stroke="#92400e" stroke-opacity="0.35"/>
    <text x="1070" y="766" text-anchor="middle" fill="#1c1917" font-size="12">Sonnet · streaming</text>
    <text x="1070" y="785" text-anchor="middle" fill="#1c1917" font-size="12">prompt caching (ephemeral)</text>
    <text x="1070" y="804" text-anchor="middle" fill="#1c1917" font-size="12">5-min TTL · citations enforced</text>
  </g>

  <!-- ═══════════════════════════════════════════════════════════
       INGESTION CLUSTER (bottom-left, clearly separated)
       Notes  →  Ingest, then a clean VERTICAL arrow up into Oracle.
       ═══════════════════════════════════════════════════════════ -->

  <!-- Section divider — visually separates ingest from request flow -->
  <line x1="80" y1="855" x2="540" y2="855" stroke="#1f2937" stroke-width="1" stroke-dasharray="3 3"/>
  <text x="80" y="846" fill="#6b7280" font-size="11" font-style="italic" font-weight="500">one-time / batch ingestion</text>

  <!-- Synthetic notes -->
  <g id="notes" filter="url(#boxshadow)">
    <polygon points="80,880 220,880 236,864 96,864" fill="#d1d5db"/>
    <polygon points="220,880 236,864 236,940 220,956" fill="#1f2937"/>
    <rect x="80" y="880" width="140" height="60" fill="url(#frontNotes)"/>
    <text x="150" y="903" text-anchor="middle" fill="#fff" font-size="13" font-weight="700">Synthetic notes</text>
    <text x="150" y="920" text-anchor="middle" fill="#f3f4f6" font-size="10">data/synthetic_notes/*.md</text>
    <text x="150" y="934" text-anchor="middle" fill="#e5e7eb" font-size="10">YAML frontmatter</text>
  </g>

  <!-- Ingest -->
  <g id="ingest" filter="url(#boxshadow)">
    <polygon points="280,880 460,880 476,864 296,864" fill="#ddd6fe"/>
    <polygon points="460,880 476,864 476,940 460,956" fill="#4c1d95"/>
    <rect x="280" y="880" width="180" height="60" fill="url(#frontIngest)"/>
    <text x="370" y="903" text-anchor="middle" fill="#fff" font-size="13" font-weight="700">Ingest pipeline</text>
    <text x="370" y="920" text-anchor="middle" fill="#ede9fe" font-size="10">chunk · embed · upsert</text>
    <text x="370" y="934" text-anchor="middle" fill="#ede9fe" font-size="10">Cohere embed-v3 · 1024-dim</text>
  </g>

  <!-- ═══════════════════════════════════════════════════════════
       ARROWS — request path (white), response (gray), LLM (amber),
       batch (purple)
       ═══════════════════════════════════════════════════════════ -->

  <!-- DBA → Streamlit -->
  <path d="M700,215 L700,238" stroke="#e5e7eb" stroke-width="2.5" fill="none" marker-end="url(#arrW)"/>

  <!-- Streamlit → RAG -->
  <path d="M700,372 L700,438" stroke="#e5e7eb" stroke-width="2.5" fill="none" marker-end="url(#arrW)"/>
  <text x="710" y="412" fill="#cbd5e1" font-size="11" font-style="italic">user question</text>

  <!-- RAG → Oracle (retrieve) — left curve -->
  <path d="M520,592 Q420,640 360,675" stroke="#e5e7eb" stroke-width="2.5" fill="none" marker-end="url(#arrW)"/>
  <text x="384" y="625" fill="#cbd5e1" font-size="11" font-style="italic">retrieve</text>

  <!-- Oracle → RAG (top-k chunks) — dashed gray -->
  <path d="M440,675 Q500,640 580,592" stroke="#9ca3af" stroke-width="2" fill="none" stroke-dasharray="5 4" marker-end="url(#arrG)"/>
  <text x="478" y="655" fill="#9ca3af" font-size="11" font-style="italic">top-k chunks</text>

  <!-- RAG → Claude (prompt + context) — amber -->
  <path d="M880,592 Q990,640 1040,675" stroke="#fbbf24" stroke-width="2.5" fill="none" marker-end="url(#arrA)"/>
  <text x="985" y="625" fill="#fde68a" font-size="11" font-style="italic">prompt + context</text>

  <!-- Claude → RAG (stream answer) — dashed amber -->
  <path d="M960,675 Q900,640 820,592" stroke="#fcd34d" stroke-width="2" fill="none" stroke-dasharray="5 4" marker-end="url(#arrA)"/>
  <text x="858" y="655" fill="#fde68a" font-size="11" font-style="italic">stream answer</text>

  <!-- Notes → Ingest (horizontal) -->
  <path d="M228,910 L277,910" stroke="#a78bfa" stroke-width="2.5" fill="none" marker-end="url(#arrP)"/>

  <!-- Ingest → Oracle (clean VERTICAL upsert into Oracle's bottom-left) -->
  <path d="M370,862 L370,824" stroke="#a78bfa" stroke-width="2.5" stroke-dasharray="6 4" fill="none" marker-end="url(#arrP)"/>
  <text x="385" y="848" fill="#c4b5fd" font-size="11" font-style="italic">batch · upsert vectors</text>

  <!-- ═══════════════════════════════════════════════════════════
       LEGEND (top-right)
       ═══════════════════════════════════════════════════════════ -->
  <g transform="translate(1080, 200)">
    <rect x="0" y="0" width="220" height="120" rx="8" fill="#1f2937" stroke="#374151" stroke-width="1"/>
    <text x="14" y="22" fill="#f3f4f6" font-size="13" font-weight="700">Flows</text>
    <line x1="14" y1="44" x2="48" y2="44" stroke="#e5e7eb" stroke-width="2.5" marker-end="url(#arrW)"/>
    <text x="56" y="49" fill="#d1d5db" font-size="11">request path</text>
    <line x1="14" y1="66" x2="48" y2="66" stroke="#9ca3af" stroke-width="2" stroke-dasharray="5 4" marker-end="url(#arrG)"/>
    <text x="56" y="71" fill="#d1d5db" font-size="11">response data</text>
    <line x1="14" y1="88" x2="48" y2="88" stroke="#fbbf24" stroke-width="2.5" marker-end="url(#arrA)"/>
    <text x="56" y="93" fill="#d1d5db" font-size="11">LLM call</text>
    <line x1="14" y1="110" x2="48" y2="110" stroke="#a78bfa" stroke-width="2.5" stroke-dasharray="6 4" marker-end="url(#arrP)"/>
    <text x="56" y="115" fill="#d1d5db" font-size="11">batch ingestion</text>
  </g>
</svg>
